<svg width="24" height="24" viewBox="0 0 24 24" fill="none" xmlns="http://www.w3.org/2000/svg">
<path fill-rule="evenodd" clip-rule="evenodd" d="M11.3861 3.21065C11.7472 2.92978 12.2529 2.92978 12.614 3.21065L21.614 10.2106C22.0499 10.5497 22.1285 11.178 21.7894 11.6139C21.4503 12.0499 20.8221 12.1284 20.3861 11.7894L12 5.26686L3.61399 11.7894C3.17804 12.1284 2.54976 12.0499 2.21069 11.6139C1.87162 11.178 1.95016 10.5497 2.38611 10.2106L11.3861 3.21065Z" fill="black"/>
<path fill-rule="evenodd" clip-rule="evenodd" d="M5.00005 8.5C5.55233 8.5 6.00005 8.94772 6.00005 9.5V20H10V17C10 16.4477 10.4478 16 11 16H13C13.5523 16 14 16.4477 14 17V20H18V10C18 9.44772 18.4478 9 19 9C19.5523 9 20 9.44772 20 10V21C20 21.5523 19.5523 22 19 22H5.00005C4.44776 22 4.00005 21.5523 4.00005 21V9.5C4.00005 8.94772 4.44776 8.5 5.00005 8.5Z" fill="black"/>
</svg>
